<mxfile host="app.diagrams.net" modified="2023-08-16T15:24:12.413Z" agent="Mozilla/5.0 (Windows NT 10.0; Win64; x64) AppleWebKit/537.36 (KHTML, like Gecko) Chrome/115.0.0.0 Safari/537.36" etag="tRfxLJo3EL7uKlgjovqd" version="21.6.8" type="github">
  <diagram name="Page-1" id="6Q0qMUVJvrJeU7XdfQbU">
    <mxGraphModel dx="1050" dy="534" grid="1" gridSize="10" guides="1" tooltips="1" connect="1" arrows="1" fold="1" page="1" pageScale="1" pageWidth="1169" pageHeight="827" background="none" math="0" shadow="0">
      <root>
        <mxCell id="0" />
        <mxCell id="1" parent="0" />
        <mxCell id="g3no2ktlb3L8krO8TUB7-37" value="" style="rounded=0;whiteSpace=wrap;html=1;rotation=90;fillStyle=hatch;dashed=1;strokeColor=#FF0000;" parent="1" vertex="1">
          <mxGeometry x="693.12" y="380" width="293.75" height="120" as="geometry" />
        </mxCell>
        <mxCell id="g3no2ktlb3L8krO8TUB7-38" value="" style="rounded=0;whiteSpace=wrap;html=1;rotation=90;fillStyle=hatch;dashed=1;strokeColor=#66CC00;" parent="1" vertex="1">
          <mxGeometry x="79.07" y="380.94" width="481.87" height="120" as="geometry" />
        </mxCell>
        <mxCell id="g3no2ktlb3L8krO8TUB7-36" value="" style="rounded=0;html=1;rotation=90;fillStyle=hatch;dashed=1;whiteSpace=wrap;fillColor=none;strokeColor=#00CCCC;" parent="1" vertex="1">
          <mxGeometry x="292.5" y="380" width="615" height="120" as="geometry" />
        </mxCell>
        <mxCell id="g3no2ktlb3L8krO8TUB7-1" value="" style="ellipse;whiteSpace=wrap;html=1;aspect=fixed;fillColor=#FFFF00;" parent="1" vertex="1">
          <mxGeometry x="560" y="160" width="80" height="80" as="geometry" />
        </mxCell>
        <mxCell id="g3no2ktlb3L8krO8TUB7-2" value="" style="ellipse;whiteSpace=wrap;html=1;aspect=fixed;fillColor=#FFFF00;" parent="1" vertex="1">
          <mxGeometry x="560" y="320" width="80" height="80" as="geometry" />
        </mxCell>
        <mxCell id="g3no2ktlb3L8krO8TUB7-3" value="" style="ellipse;whiteSpace=wrap;html=1;aspect=fixed;fillColor=#FFFF00;" parent="1" vertex="1">
          <mxGeometry x="560" y="480" width="80" height="80" as="geometry" />
        </mxCell>
        <mxCell id="g3no2ktlb3L8krO8TUB7-4" value="" style="ellipse;whiteSpace=wrap;html=1;aspect=fixed;fillColor=#FF8000;" parent="1" vertex="1">
          <mxGeometry x="280" y="240" width="80" height="80" as="geometry" />
        </mxCell>
        <mxCell id="g3no2ktlb3L8krO8TUB7-6" value="" style="ellipse;whiteSpace=wrap;html=1;aspect=fixed;fillColor=#FFFF00;" parent="1" vertex="1">
          <mxGeometry x="560" y="640" width="80" height="80" as="geometry" />
        </mxCell>
        <mxCell id="g3no2ktlb3L8krO8TUB7-7" value="" style="ellipse;whiteSpace=wrap;html=1;aspect=fixed;fillColor=#FF8000;" parent="1" vertex="1">
          <mxGeometry x="280" y="400" width="80" height="80" as="geometry" />
        </mxCell>
        <mxCell id="g3no2ktlb3L8krO8TUB7-8" value="" style="ellipse;whiteSpace=wrap;html=1;aspect=fixed;fillColor=#FF8000;" parent="1" vertex="1">
          <mxGeometry x="280" y="560" width="80" height="80" as="geometry" />
        </mxCell>
        <mxCell id="g3no2ktlb3L8krO8TUB7-9" value="" style="ellipse;whiteSpace=wrap;html=1;aspect=fixed;fillColor=#66CC00;" parent="1" vertex="1">
          <mxGeometry x="800" y="320" width="80" height="80" as="geometry" />
        </mxCell>
        <mxCell id="g3no2ktlb3L8krO8TUB7-10" value="" style="ellipse;whiteSpace=wrap;html=1;aspect=fixed;fillColor=#66CC00;" parent="1" vertex="1">
          <mxGeometry x="800" y="480" width="80" height="80" as="geometry" />
        </mxCell>
        <mxCell id="g3no2ktlb3L8krO8TUB7-12" value="" style="endArrow=classic;html=1;rounded=0;exitX=1;exitY=0.5;exitDx=0;exitDy=0;entryX=0;entryY=0.5;entryDx=0;entryDy=0;strokeColor=#0000FF;" parent="1" source="g3no2ktlb3L8krO8TUB7-4" target="g3no2ktlb3L8krO8TUB7-1" edge="1">
          <mxGeometry width="50" height="50" relative="1" as="geometry">
            <mxPoint x="650" y="450" as="sourcePoint" />
            <mxPoint x="700" y="400" as="targetPoint" />
          </mxGeometry>
        </mxCell>
        <mxCell id="g3no2ktlb3L8krO8TUB7-13" value="" style="endArrow=classic;html=1;rounded=0;exitX=1;exitY=0.5;exitDx=0;exitDy=0;entryX=0;entryY=0.5;entryDx=0;entryDy=0;strokeColor=#0000FF;" parent="1" source="g3no2ktlb3L8krO8TUB7-7" target="g3no2ktlb3L8krO8TUB7-1" edge="1">
          <mxGeometry width="50" height="50" relative="1" as="geometry">
            <mxPoint x="650" y="450" as="sourcePoint" />
            <mxPoint x="700" y="400" as="targetPoint" />
          </mxGeometry>
        </mxCell>
        <mxCell id="g3no2ktlb3L8krO8TUB7-15" value="" style="endArrow=classic;html=1;rounded=0;exitX=1;exitY=0.5;exitDx=0;exitDy=0;entryX=0;entryY=0.5;entryDx=0;entryDy=0;strokeColor=#0000FF;" parent="1" source="g3no2ktlb3L8krO8TUB7-8" target="g3no2ktlb3L8krO8TUB7-1" edge="1">
          <mxGeometry width="50" height="50" relative="1" as="geometry">
            <mxPoint x="390" y="610" as="sourcePoint" />
            <mxPoint x="560" y="200" as="targetPoint" />
          </mxGeometry>
        </mxCell>
        <mxCell id="g3no2ktlb3L8krO8TUB7-16" value="" style="endArrow=classic;html=1;rounded=0;exitX=1;exitY=0.5;exitDx=0;exitDy=0;entryX=0;entryY=0.5;entryDx=0;entryDy=0;strokeColor=#0000FF;" parent="1" source="g3no2ktlb3L8krO8TUB7-4" target="g3no2ktlb3L8krO8TUB7-2" edge="1">
          <mxGeometry width="50" height="50" relative="1" as="geometry">
            <mxPoint x="400" y="330" as="sourcePoint" />
            <mxPoint x="710" y="400" as="targetPoint" />
          </mxGeometry>
        </mxCell>
        <mxCell id="g3no2ktlb3L8krO8TUB7-19" value="" style="endArrow=classic;html=1;rounded=0;entryX=0;entryY=0.5;entryDx=0;entryDy=0;exitX=1;exitY=0.5;exitDx=0;exitDy=0;strokeColor=#0000FF;" parent="1" source="g3no2ktlb3L8krO8TUB7-7" target="g3no2ktlb3L8krO8TUB7-3" edge="1">
          <mxGeometry width="50" height="50" relative="1" as="geometry">
            <mxPoint x="380" y="470" as="sourcePoint" />
            <mxPoint x="560" y="520" as="targetPoint" />
          </mxGeometry>
        </mxCell>
        <mxCell id="g3no2ktlb3L8krO8TUB7-20" value="" style="endArrow=classic;html=1;rounded=0;exitX=1;exitY=0.5;exitDx=0;exitDy=0;entryX=0;entryY=0.5;entryDx=0;entryDy=0;strokeColor=#0000FF;" parent="1" source="g3no2ktlb3L8krO8TUB7-8" target="g3no2ktlb3L8krO8TUB7-6" edge="1">
          <mxGeometry width="50" height="50" relative="1" as="geometry">
            <mxPoint x="380" y="640" as="sourcePoint" />
            <mxPoint x="530" y="700" as="targetPoint" />
          </mxGeometry>
        </mxCell>
        <mxCell id="g3no2ktlb3L8krO8TUB7-21" value="" style="endArrow=classic;html=1;rounded=0;exitX=1;exitY=0.5;exitDx=0;exitDy=0;entryX=0;entryY=0.5;entryDx=0;entryDy=0;strokeColor=#0000FF;" parent="1" source="g3no2ktlb3L8krO8TUB7-7" target="g3no2ktlb3L8krO8TUB7-2" edge="1">
          <mxGeometry width="50" height="50" relative="1" as="geometry">
            <mxPoint x="660" y="450" as="sourcePoint" />
            <mxPoint x="710" y="400" as="targetPoint" />
          </mxGeometry>
        </mxCell>
        <mxCell id="g3no2ktlb3L8krO8TUB7-22" value="" style="endArrow=classic;html=1;rounded=0;exitX=1;exitY=0.5;exitDx=0;exitDy=0;entryX=0;entryY=0.5;entryDx=0;entryDy=0;strokeColor=#0000FF;" parent="1" source="g3no2ktlb3L8krO8TUB7-8" target="g3no2ktlb3L8krO8TUB7-3" edge="1">
          <mxGeometry width="50" height="50" relative="1" as="geometry">
            <mxPoint x="390" y="310" as="sourcePoint" />
            <mxPoint x="590" y="390" as="targetPoint" />
          </mxGeometry>
        </mxCell>
        <mxCell id="g3no2ktlb3L8krO8TUB7-23" value="" style="endArrow=classic;html=1;rounded=0;exitX=1;exitY=0.5;exitDx=0;exitDy=0;entryX=0;entryY=0.5;entryDx=0;entryDy=0;strokeColor=#0000FF;" parent="1" source="g3no2ktlb3L8krO8TUB7-8" target="g3no2ktlb3L8krO8TUB7-2" edge="1">
          <mxGeometry width="50" height="50" relative="1" as="geometry">
            <mxPoint x="400" y="320" as="sourcePoint" />
            <mxPoint x="600" y="400" as="targetPoint" />
          </mxGeometry>
        </mxCell>
        <mxCell id="g3no2ktlb3L8krO8TUB7-24" value="" style="endArrow=classic;html=1;rounded=0;exitX=1;exitY=0.5;exitDx=0;exitDy=0;entryX=0;entryY=0.5;entryDx=0;entryDy=0;strokeColor=#0000FF;" parent="1" source="g3no2ktlb3L8krO8TUB7-4" target="g3no2ktlb3L8krO8TUB7-6" edge="1">
          <mxGeometry width="50" height="50" relative="1" as="geometry">
            <mxPoint x="410" y="330" as="sourcePoint" />
            <mxPoint x="610" y="410" as="targetPoint" />
          </mxGeometry>
        </mxCell>
        <mxCell id="g3no2ktlb3L8krO8TUB7-25" value="" style="endArrow=classic;html=1;rounded=0;exitX=1;exitY=0.5;exitDx=0;exitDy=0;entryX=0;entryY=0.5;entryDx=0;entryDy=0;strokeColor=#0000FF;" parent="1" source="g3no2ktlb3L8krO8TUB7-4" target="g3no2ktlb3L8krO8TUB7-3" edge="1">
          <mxGeometry width="50" height="50" relative="1" as="geometry">
            <mxPoint x="420" y="340" as="sourcePoint" />
            <mxPoint x="620" y="420" as="targetPoint" />
          </mxGeometry>
        </mxCell>
        <mxCell id="g3no2ktlb3L8krO8TUB7-26" value="" style="endArrow=classic;html=1;rounded=0;exitX=1;exitY=0.5;exitDx=0;exitDy=0;entryX=0;entryY=0.5;entryDx=0;entryDy=0;strokeColor=#0000FF;" parent="1" source="g3no2ktlb3L8krO8TUB7-7" target="g3no2ktlb3L8krO8TUB7-6" edge="1">
          <mxGeometry width="50" height="50" relative="1" as="geometry">
            <mxPoint x="430" y="350" as="sourcePoint" />
            <mxPoint x="630" y="430" as="targetPoint" />
          </mxGeometry>
        </mxCell>
        <mxCell id="g3no2ktlb3L8krO8TUB7-27" value="" style="endArrow=classic;html=1;rounded=0;exitX=1;exitY=0.5;exitDx=0;exitDy=0;entryX=0;entryY=0.5;entryDx=0;entryDy=0;strokeColor=#FF0080;" parent="1" source="g3no2ktlb3L8krO8TUB7-1" target="g3no2ktlb3L8krO8TUB7-9" edge="1">
          <mxGeometry width="50" height="50" relative="1" as="geometry">
            <mxPoint x="440" y="360" as="sourcePoint" />
            <mxPoint x="640" y="440" as="targetPoint" />
          </mxGeometry>
        </mxCell>
        <mxCell id="g3no2ktlb3L8krO8TUB7-28" value="" style="endArrow=classic;html=1;rounded=0;entryX=0;entryY=0.5;entryDx=0;entryDy=0;exitX=1;exitY=0.5;exitDx=0;exitDy=0;strokeColor=#FF0080;" parent="1" source="g3no2ktlb3L8krO8TUB7-2" target="g3no2ktlb3L8krO8TUB7-9" edge="1">
          <mxGeometry width="50" height="50" relative="1" as="geometry">
            <mxPoint x="640" y="360" as="sourcePoint" />
            <mxPoint x="650" y="450" as="targetPoint" />
          </mxGeometry>
        </mxCell>
        <mxCell id="g3no2ktlb3L8krO8TUB7-29" value="" style="endArrow=classic;html=1;rounded=0;exitX=1;exitY=0.5;exitDx=0;exitDy=0;entryX=0;entryY=0.5;entryDx=0;entryDy=0;strokeColor=#FF0080;" parent="1" source="g3no2ktlb3L8krO8TUB7-3" target="g3no2ktlb3L8krO8TUB7-10" edge="1">
          <mxGeometry width="50" height="50" relative="1" as="geometry">
            <mxPoint x="460" y="380" as="sourcePoint" />
            <mxPoint x="660" y="460" as="targetPoint" />
          </mxGeometry>
        </mxCell>
        <mxCell id="g3no2ktlb3L8krO8TUB7-30" value="" style="endArrow=classic;html=1;rounded=0;exitX=1;exitY=0.5;exitDx=0;exitDy=0;entryX=0;entryY=0.5;entryDx=0;entryDy=0;strokeColor=#FF0080;" parent="1" source="g3no2ktlb3L8krO8TUB7-3" target="g3no2ktlb3L8krO8TUB7-9" edge="1">
          <mxGeometry width="50" height="50" relative="1" as="geometry">
            <mxPoint x="470" y="390" as="sourcePoint" />
            <mxPoint x="670" y="470" as="targetPoint" />
          </mxGeometry>
        </mxCell>
        <mxCell id="g3no2ktlb3L8krO8TUB7-31" value="" style="endArrow=classic;html=1;rounded=0;exitX=1;exitY=0.5;exitDx=0;exitDy=0;entryX=0;entryY=0.5;entryDx=0;entryDy=0;strokeColor=#FF0080;" parent="1" source="g3no2ktlb3L8krO8TUB7-6" target="g3no2ktlb3L8krO8TUB7-9" edge="1">
          <mxGeometry width="50" height="50" relative="1" as="geometry">
            <mxPoint x="480" y="400" as="sourcePoint" />
            <mxPoint x="680" y="480" as="targetPoint" />
          </mxGeometry>
        </mxCell>
        <mxCell id="g3no2ktlb3L8krO8TUB7-32" value="" style="endArrow=classic;html=1;rounded=0;exitX=1;exitY=0.5;exitDx=0;exitDy=0;entryX=0;entryY=0.5;entryDx=0;entryDy=0;strokeColor=#FF0080;" parent="1" source="g3no2ktlb3L8krO8TUB7-2" target="g3no2ktlb3L8krO8TUB7-10" edge="1">
          <mxGeometry width="50" height="50" relative="1" as="geometry">
            <mxPoint x="490" y="410" as="sourcePoint" />
            <mxPoint x="690" y="490" as="targetPoint" />
          </mxGeometry>
        </mxCell>
        <mxCell id="g3no2ktlb3L8krO8TUB7-33" value="" style="endArrow=classic;html=1;rounded=0;exitX=1;exitY=0.5;exitDx=0;exitDy=0;entryX=0;entryY=0.5;entryDx=0;entryDy=0;strokeColor=#FF0080;" parent="1" source="g3no2ktlb3L8krO8TUB7-1" target="g3no2ktlb3L8krO8TUB7-10" edge="1">
          <mxGeometry width="50" height="50" relative="1" as="geometry">
            <mxPoint x="500" y="420" as="sourcePoint" />
            <mxPoint x="700" y="500" as="targetPoint" />
          </mxGeometry>
        </mxCell>
        <mxCell id="g3no2ktlb3L8krO8TUB7-34" value="" style="endArrow=classic;html=1;rounded=0;exitX=1;exitY=0.5;exitDx=0;exitDy=0;entryX=0;entryY=0.5;entryDx=0;entryDy=0;strokeColor=#FF0080;" parent="1" source="g3no2ktlb3L8krO8TUB7-6" target="g3no2ktlb3L8krO8TUB7-10" edge="1">
          <mxGeometry width="50" height="50" relative="1" as="geometry">
            <mxPoint x="510" y="430" as="sourcePoint" />
            <mxPoint x="710" y="510" as="targetPoint" />
          </mxGeometry>
        </mxCell>
        <mxCell id="g3no2ktlb3L8krO8TUB7-39" value="&lt;p style=&quot;font-size: 20px;&quot;&gt;&lt;font style=&quot;font-size: 20px;&quot;&gt;HIDDEN LAYER&lt;/font&gt;&lt;/p&gt;" style="text;html=1;strokeColor=none;fillColor=none;align=center;verticalAlign=middle;whiteSpace=wrap;rounded=0;fontFamily=Tahoma;fontSize=20;fontStyle=1;horizontal=1;labelBorderColor=none;" parent="1" vertex="1">
          <mxGeometry x="514.38" y="770" width="171.25" height="40" as="geometry" />
        </mxCell>
        <mxCell id="g3no2ktlb3L8krO8TUB7-40" value="&lt;p style=&quot;font-size: 20px;&quot;&gt;&lt;font style=&quot;font-size: 20px;&quot;&gt;INPUT LAYER&lt;/font&gt;&lt;/p&gt;" style="text;html=1;strokeColor=none;fillColor=none;align=center;verticalAlign=middle;whiteSpace=wrap;rounded=0;fontFamily=Tahoma;fontSize=20;fontStyle=1;horizontal=1;labelBorderColor=none;" parent="1" vertex="1">
          <mxGeometry x="240" y="690" width="171.25" height="40" as="geometry" />
        </mxCell>
        <mxCell id="g3no2ktlb3L8krO8TUB7-41" value="&lt;p style=&quot;font-size: 20px;&quot;&gt;OUTPUT LAYER&lt;/p&gt;" style="text;html=1;strokeColor=none;fillColor=none;align=center;verticalAlign=middle;whiteSpace=wrap;rounded=0;fontFamily=Tahoma;fontSize=20;fontStyle=1;horizontal=1;labelBorderColor=none;" parent="1" vertex="1">
          <mxGeometry x="754.37" y="610" width="171.25" height="40" as="geometry" />
        </mxCell>
        <mxCell id="g3no2ktlb3L8krO8TUB7-42" value="" style="endArrow=classic;html=1;rounded=0;entryX=0.5;entryY=0;entryDx=0;entryDy=0;" parent="1" target="g3no2ktlb3L8krO8TUB7-1" edge="1">
          <mxGeometry width="50" height="50" relative="1" as="geometry">
            <mxPoint x="630" y="80" as="sourcePoint" />
            <mxPoint x="470" y="320" as="targetPoint" />
            <Array as="points">
              <mxPoint x="600" y="80" />
            </Array>
          </mxGeometry>
        </mxCell>
        <mxCell id="g3no2ktlb3L8krO8TUB7-44" value="&lt;p style=&quot;font-size: 20px;&quot;&gt;PERCEPTRON&lt;/p&gt;" style="text;html=1;strokeColor=none;fillColor=none;align=center;verticalAlign=middle;whiteSpace=wrap;rounded=0;fontFamily=Tahoma;fontSize=20;fontStyle=1;horizontal=1;labelBorderColor=none;" parent="1" vertex="1">
          <mxGeometry x="628.75" y="60" width="171.25" height="40" as="geometry" />
        </mxCell>
        <mxCell id="4bdwP4QzyIntdXMyweXl-1" value="" style="endArrow=classic;html=1;rounded=0;entryX=0;entryY=0.5;entryDx=0;entryDy=0;strokeColor=#FF8000;" parent="1" target="g3no2ktlb3L8krO8TUB7-4" edge="1">
          <mxGeometry width="50" height="50" relative="1" as="geometry">
            <mxPoint x="160" y="280" as="sourcePoint" />
            <mxPoint x="560" y="350" as="targetPoint" />
          </mxGeometry>
        </mxCell>
        <mxCell id="4bdwP4QzyIntdXMyweXl-2" value="&lt;p style=&quot;font-size: 20px;&quot;&gt;OUTPUT LAYER&lt;/p&gt;" style="text;html=1;strokeColor=none;fillColor=none;align=center;verticalAlign=middle;whiteSpace=wrap;rounded=0;fontFamily=Tahoma;fontSize=20;fontStyle=1;horizontal=1;labelBorderColor=none;" parent="1" vertex="1">
          <mxGeometry x="754.37" y="610" width="171.25" height="40" as="geometry" />
        </mxCell>
        <mxCell id="4bdwP4QzyIntdXMyweXl-3" value="" style="endArrow=classic;html=1;rounded=0;entryX=0;entryY=0.5;entryDx=0;entryDy=0;strokeColor=#FF8000;" parent="1" target="g3no2ktlb3L8krO8TUB7-7" edge="1">
          <mxGeometry width="50" height="50" relative="1" as="geometry">
            <mxPoint x="160" y="440" as="sourcePoint" />
            <mxPoint x="220" y="439.5" as="targetPoint" />
          </mxGeometry>
        </mxCell>
        <mxCell id="4bdwP4QzyIntdXMyweXl-4" value="" style="endArrow=classic;html=1;rounded=0;entryX=0;entryY=0.5;entryDx=0;entryDy=0;strokeColor=#FF8000;" parent="1" target="g3no2ktlb3L8krO8TUB7-8" edge="1">
          <mxGeometry width="50" height="50" relative="1" as="geometry">
            <mxPoint x="160" y="600" as="sourcePoint" />
            <mxPoint x="300" y="300" as="targetPoint" />
          </mxGeometry>
        </mxCell>
        <mxCell id="4bdwP4QzyIntdXMyweXl-5" value="" style="endArrow=classic;html=1;rounded=0;exitX=1;exitY=0.5;exitDx=0;exitDy=0;strokeColor=#66CC00;" parent="1" source="g3no2ktlb3L8krO8TUB7-9" edge="1">
          <mxGeometry width="50" height="50" relative="1" as="geometry">
            <mxPoint x="190" y="310" as="sourcePoint" />
            <mxPoint x="1000" y="360" as="targetPoint" />
          </mxGeometry>
        </mxCell>
        <mxCell id="4bdwP4QzyIntdXMyweXl-6" value="" style="endArrow=classic;html=1;rounded=0;exitX=1;exitY=0.5;exitDx=0;exitDy=0;strokeColor=#66CC00;" parent="1" source="g3no2ktlb3L8krO8TUB7-10" edge="1">
          <mxGeometry width="50" height="50" relative="1" as="geometry">
            <mxPoint x="910" y="510" as="sourcePoint" />
            <mxPoint x="1000" y="520" as="targetPoint" />
          </mxGeometry>
        </mxCell>
      </root>
    </mxGraphModel>
  </diagram>
</mxfile>
